<?xml version="1.0" encoding="utf-8"?>
<!-- Generator: Adobe Illustrator 26.5.0, SVG Export Plug-In . SVG Version: 6.00 Build 0)  -->
<svg version="1.1" id="Capa_1" xmlns="http://www.w3.org/2000/svg" xmlns:xlink="http://www.w3.org/1999/xlink" x="0px" y="0px"
	 viewBox="0 0 61.2 61.2" style="enable-background:new 0 0 61.2 61.2;" xml:space="preserve">
<style type="text/css">
	.st0{fill:#DAD2C5;}
</style>
<g>
	<g>
		<g>
			<path class="st0" d="M15.5,52.5L15.5,52.5c-1.1,0-2-0.9-2-2l0-15.7c0-1.1,0.9-2,2-2h0c1.1,0,2,0.9,2,2v15.7
				C17.5,51.6,16.6,52.5,15.5,52.5z"/>
			<path class="st0" d="M8.7,49.3L8.7,49.3c-1.1,0-2-0.9-2-2V38c0-1.1,0.9-2,2-2h0c1.1,0,2,0.9,2,2v9.3C10.7,48.4,9.8,49.3,8.7,49.3
				z"/>
		</g>
		<g>
			<path class="st0" d="M45.7,32.7L45.7,32.7c1.1,0,2,0.9,2,2v15.7c0,1.1-0.9,2-2,2h0c-1.1,0-2-0.9-2-2V34.8
				C43.7,33.6,44.6,32.7,45.7,32.7z"/>
			<path class="st0" d="M52.4,35.9L52.4,35.9c1.1,0,2,0.9,2,2v9.3c0,1.1-0.9,2-2,2h0c-1.1,0-2-0.9-2-2V38
				C50.4,36.8,51.3,35.9,52.4,35.9z"/>
		</g>
		<path class="st0" d="M52.1,33.1c-0.8,0-1.4-0.6-1.4-1.4c0-11.2-9.1-20.2-20.2-20.2s-20.2,9.1-20.2,20.2c0,0.8-0.6,1.4-1.4,1.4
			c-0.8,0-1.4-0.6-1.4-1.4c0-12.7,10.3-23,23-23s23,10.3,23,23C53.5,32.4,52.8,33.1,52.1,33.1z"/>
	</g>
</g>
</svg>
