<?xml version="1.0" encoding="utf-8"?>
<!-- Generator: Adobe Illustrator 26.5.0, SVG Export Plug-In . SVG Version: 6.00 Build 0)  -->
<svg version="1.1" id="Capa_1" xmlns="http://www.w3.org/2000/svg" xmlns:xlink="http://www.w3.org/1999/xlink" x="0px" y="0px"
	 viewBox="0 0 132 130.3" style="enable-background:new 0 0 132 130.3;" xml:space="preserve">
<style type="text/css">
	.st0{fill-rule:evenodd;clip-rule:evenodd;fill:#325566;}
</style>
<g>
	<g>
		<path class="st0" d="M11,96.6V80.8h5.8c1.6,0,2.9,0.3,4.1,0.8c1.2,0.6,2.1,1.4,2.7,2.6c0.6,1.2,1,2.7,1,4.5c0,1.8-0.3,3.3-1,4.5
			c-0.6,1.2-1.6,2-2.7,2.6c-1.2,0.6-2.5,0.8-4.1,0.8H11L11,96.6z M14.3,83.3V94h2.2c1.2,0,2.1-0.2,2.8-0.7c0.7-0.5,1.2-1.1,1.4-1.9
			c0.3-0.8,0.4-1.7,0.4-2.7c0-1-0.1-2-0.4-2.8c-0.3-0.8-0.8-1.4-1.4-1.9c-0.7-0.5-1.6-0.7-2.8-0.7H14.3L14.3,83.3z M30,85.2v11.4h-3
			V85.2H30L30,85.2z M30,83.1h-3v-2.5h3V83.1L30,83.1z M33.4,100.7V85.2h2.9v1.1c1-0.8,2-1.3,3.2-1.3c1.1,0,2,0.3,2.7,0.8
			c0.8,0.5,1.3,1.3,1.7,2.2c0.4,0.9,0.6,2,0.6,3.2c0,0.9-0.2,1.9-0.6,2.7c-0.4,0.9-1,1.6-1.7,2.1c-0.8,0.5-1.7,0.8-2.7,0.8
			c-0.5,0-1.1-0.1-1.7-0.4c-0.6-0.2-1.1-0.5-1.4-0.9h0v5.2H33.4L33.4,100.7z M36.4,88.2v5.5c0.8,0.6,1.5,1,2.3,1
			c0.9,0,1.6-0.3,2.1-1c0.5-0.6,0.7-1.6,0.7-2.8c0-0.8-0.1-1.5-0.3-2c-0.2-0.5-0.5-1-1-1.2c-0.4-0.3-0.9-0.4-1.5-0.4
			c-0.4,0-0.7,0-1,0.1c-0.3,0.1-0.5,0.2-0.7,0.4C36.8,87.8,36.6,88,36.4,88.2L36.4,88.2z M54.1,85.2h3v11.4h-2.7v-1.2
			c-0.7,0.4-1.4,0.8-2,1.1c-0.6,0.3-1.2,0.4-1.9,0.4c-1.2,0-2.1-0.3-2.8-1c-0.6-0.7-0.9-1.6-0.9-2.8v-7.8h3v7.4
			c0,0.7,0.1,1.3,0.4,1.6c0.2,0.3,0.6,0.5,1.2,0.5c0.6,0,1.1-0.1,1.6-0.4c0.5-0.2,0.9-0.5,1.2-0.9V85.2L54.1,85.2z M59,85.2h1.7
			v-3.8h3v3.8h2.5v2.2h-2.5v6.4c0,0.3,0.1,0.5,0.3,0.6c0.2,0.1,0.4,0.2,0.8,0.2c0.2,0,0.6-0.1,1.4-0.2v2.2c-1.1,0.1-1.9,0.2-2.4,0.2
			c-1.1,0-1.8-0.2-2.3-0.7c-0.5-0.5-0.7-1.1-0.7-1.9v-6.8H59V85.2L59,85.2z M77.5,96.6h-2.9l-0.2-1c-0.4,0.3-0.8,0.5-1.2,0.7
			c-0.4,0.2-0.8,0.3-1.3,0.4c-0.4,0.1-0.9,0.1-1.4,0.1c-1.1,0-1.9-0.3-2.5-0.9c-0.6-0.6-0.9-1.3-0.9-2.1c0-0.9,0.3-1.6,0.8-2.2
			c0.5-0.6,1.3-1.1,2.4-1.5c1.1-0.4,2.4-0.6,4-0.8v-1c0-0.4-0.2-0.8-0.5-1C73.5,87.1,73,87,72.5,87c-0.6,0-1.2,0.1-1.6,0.4
			c-0.4,0.2-0.8,0.6-1.2,1l-1.9-1.3c0.2-0.4,0.6-0.8,1.1-1.1c0.5-0.3,1.1-0.6,1.7-0.7c0.6-0.2,1.2-0.3,1.8-0.3
			c1.1,0,2.1,0.2,2.8,0.5c0.7,0.3,1.2,0.8,1.5,1.4c0.3,0.7,0.5,1.6,0.5,2.7v5.4C77.3,95.6,77.4,96.2,77.5,96.6L77.5,96.6z
			 M74.3,93.6v-2.4c-0.9,0.2-1.7,0.3-2.2,0.5c-0.5,0.1-1,0.4-1.4,0.7c-0.4,0.3-0.6,0.7-0.6,1.2c0,0.4,0.1,0.7,0.4,1
			c0.3,0.2,0.6,0.4,1,0.4c0.4,0,0.9-0.1,1.4-0.4C73.4,94.2,73.9,93.9,74.3,93.6L74.3,93.6z M89.7,88l-2.5,0.9
			c-0.3-0.6-0.6-1-0.9-1.3c-0.3-0.3-0.9-0.4-1.5-0.4c-0.8,0-1.4,0.3-1.9,0.9c-0.4,0.6-0.6,1.5-0.6,2.8c0,1.3,0.2,2.2,0.6,2.8
			c0.4,0.6,1.1,0.9,1.9,0.9c0.6,0,1.1-0.2,1.5-0.5c0.4-0.3,0.8-0.8,1.1-1.3l2.3,1.2c-0.6,1-1.3,1.7-2.1,2.2
			c-0.8,0.4-1.8,0.7-2.9,0.7c-1.1,0-2.1-0.2-2.9-0.7C81,95.6,80.4,94.9,80,94c-0.4-0.9-0.7-1.9-0.7-3.1c0-1.2,0.2-2.2,0.7-3.1
			c0.4-0.9,1.1-1.6,1.9-2.1c0.8-0.5,1.8-0.7,2.9-0.7c1.2,0,2.2,0.3,3.1,0.8C88.7,86.3,89.3,87.1,89.7,88L89.7,88z M95.6,85.2v11.4
			h-3V85.2H95.6L95.6,85.2z M95.6,83.1h-3v-2.5h3V83.1L95.6,83.1z M105.9,90.9c0-1.3-0.2-2.2-0.6-2.8c-0.4-0.6-1-0.9-1.8-0.9
			s-1.4,0.3-1.9,0.9c-0.4,0.6-0.6,1.5-0.6,2.8c0,1.3,0.2,2.2,0.6,2.8c0.4,0.6,1,0.9,1.9,0.9s1.4-0.3,1.8-0.9
			C105.7,93.1,105.9,92.2,105.9,90.9L105.9,90.9z M98,90.9c0-1.2,0.2-2.2,0.7-3.1c0.4-0.9,1.1-1.6,1.9-2.1c0.8-0.5,1.8-0.7,2.9-0.7
			c0.9,0,1.6,0.1,2.3,0.4c0.7,0.3,1.2,0.7,1.7,1.2c0.5,0.5,0.8,1.2,1.1,1.9c0.2,0.7,0.4,1.5,0.4,2.4c0,0.9-0.1,1.7-0.4,2.4
			c-0.2,0.7-0.6,1.4-1.1,1.9c-0.5,0.5-1,0.9-1.7,1.2c-0.7,0.3-1.4,0.4-2.3,0.4c-1.1,0-2.1-0.2-2.9-0.7c-0.8-0.5-1.5-1.2-1.9-2.1
			C98.2,93.1,98,92.1,98,90.9L98,90.9z M103.7,80.6h3.7l-3.5,3.2h-2.5L103.7,80.6L103.7,80.6z M114,96.6h-3V85.2h2.7v1.2
			c0.7-0.4,1.4-0.8,1.9-1.1c0.6-0.3,1.2-0.4,1.9-0.4c1.2,0,2.2,0.3,2.8,1c0.6,0.7,0.9,1.6,0.9,2.8v7.8h-3v-7.4
			c0-0.7-0.1-1.3-0.4-1.6c-0.2-0.3-0.6-0.5-1.2-0.5c-0.6,0-1.1,0.1-1.6,0.4c-0.5,0.2-0.9,0.5-1.2,0.8V96.6z"/>
		<path class="st0" d="M19.8,103.3v15.5h-1l-0.2-1.5c-0.4,0.6-1,1-1.7,1.3c-0.7,0.3-1.4,0.4-2.3,0.4c-1.6,0-2.8-0.5-3.6-1.5
			s-1.3-2.5-1.3-4.3c0-0.8,0.1-1.6,0.4-2.3c0.2-0.7,0.6-1.3,1-1.8c0.4-0.5,0.9-0.9,1.5-1.2c0.6-0.3,1.2-0.4,2-0.4
			c0.8,0,1.5,0.1,2,0.4c0.6,0.3,1.2,0.7,1.8,1.3v-5.8H19.8L19.8,103.3z M18.4,115.9v-5.5c-0.2-0.3-0.4-0.5-0.8-0.9
			c-0.4-0.3-0.8-0.6-1.3-0.8c-0.5-0.2-0.9-0.3-1.4-0.3c-1.2,0-2.2,0.4-2.8,1.3c-0.6,0.9-1,2.1-1,3.6c0,1.3,0.3,2.4,0.9,3.3
			c0.6,0.9,1.5,1.3,2.7,1.3c0.8,0,1.5-0.2,2.1-0.5C17.4,117.1,17.9,116.6,18.4,115.9L18.4,115.9z M32.8,113.3h-8.5
			c0,1.4,0.3,2.5,1,3.4c0.7,0.9,1.6,1.3,2.9,1.3c0.5,0,1-0.1,1.4-0.2c0.4-0.1,0.7-0.4,1.1-0.7c0.3-0.3,0.7-0.8,1.1-1.4l1.1,0.6
			c-0.3,0.5-0.7,0.9-1,1.3c-0.3,0.3-0.7,0.6-1,0.8c-0.4,0.2-0.8,0.4-1.2,0.5c-0.5,0.1-1,0.2-1.6,0.2c-1.6,0-2.9-0.5-3.8-1.5
			c-0.9-1-1.4-2.4-1.4-4.3c0-1.1,0.2-2.1,0.6-3c0.4-0.9,1-1.6,1.8-2.1c0.8-0.5,1.7-0.7,2.7-0.7c1.1,0,2,0.2,2.7,0.7
			c0.7,0.5,1.3,1.2,1.6,2C32.6,111.1,32.8,112.1,32.8,113.3L32.8,113.3z M24.3,112.2h7.1c-0.1-1.2-0.5-2.1-1.1-2.8
			c-0.6-0.7-1.4-1-2.4-1c-0.8,0-1.4,0.2-2,0.6c-0.5,0.4-0.9,0.9-1.2,1.5C24.4,111.1,24.3,111.7,24.3,112.2L24.3,112.2z M53.4,107.6
			l-1.4,0.3c-0.4-1.2-0.9-2.1-1.6-2.7c-0.7-0.6-1.5-0.9-2.5-0.9c-1.1,0-2,0.3-2.7,0.9c-0.7,0.6-1.3,1.4-1.6,2.4
			c-0.3,1-0.5,2.2-0.5,3.5c0,1,0.1,1.9,0.3,2.7c0.2,0.8,0.5,1.5,0.9,2.2c0.4,0.6,0.9,1.1,1.6,1.4c0.6,0.3,1.4,0.5,2.2,0.5
			c1.2,0,2.2-0.3,2.8-1s1.1-1.6,1.4-2.8l1.5,0.2c-0.2,0.9-0.5,1.8-1,2.5c-0.5,0.7-1.1,1.3-1.9,1.6c-0.8,0.4-1.7,0.6-2.9,0.6
			c-1,0-1.9-0.2-2.7-0.6c-0.8-0.4-1.5-0.9-2.1-1.6c-0.6-0.7-1-1.6-1.3-2.5c-0.3-1-0.4-2-0.4-3.2c0-1.2,0.1-2.3,0.4-3.2
			c0.3-1,0.7-1.8,1.3-2.5c0.6-0.7,1.3-1.3,2.1-1.6c0.8-0.4,1.7-0.6,2.7-0.6c1.4,0,2.6,0.4,3.5,1.2C52.4,105.1,53,106.2,53.4,107.6
			L53.4,107.6z M60.6,108.5c-0.8,0-1.5,0.2-2.1,0.6c-0.5,0.4-0.9,0.9-1.2,1.6c-0.3,0.7-0.4,1.6-0.4,2.6c0,1.5,0.3,2.7,0.9,3.5
			c0.6,0.8,1.5,1.2,2.7,1.2c1.2,0,2.1-0.4,2.7-1.2c0.6-0.8,0.9-2,0.9-3.5c0-1-0.1-1.9-0.4-2.6c-0.3-0.7-0.6-1.3-1.2-1.6
			C62.1,108.7,61.4,108.5,60.6,108.5L60.6,108.5z M60.6,107.4c1.2,0,2.2,0.3,3,0.8c0.7,0.5,1.3,1.2,1.6,2.1c0.3,0.9,0.5,1.8,0.5,2.9
			c0,1.1-0.2,2-0.5,2.9c-0.3,0.9-0.9,1.6-1.6,2.1c-0.7,0.5-1.7,0.8-3,0.8c-1.8,0-3.1-0.5-3.8-1.6c-0.8-1.1-1.2-2.5-1.2-4.2
			c0-0.8,0.1-1.5,0.3-2.2c0.2-0.7,0.5-1.3,0.9-1.9c0.4-0.5,0.9-1,1.6-1.3C58.9,107.6,59.6,107.4,60.6,107.4L60.6,107.4z M61.6,103.5
			h1.8l-3.2,2.9H59L61.6,103.5L61.6,103.5z M69.7,118.8h-1.4v-11.1h1.4v2.1h0c0.3-0.7,0.8-1.3,1.4-1.7c0.6-0.4,1.3-0.6,2.1-0.6h0.6
			v1.2h-0.6c-0.5,0-1.1,0.2-1.6,0.5c-0.6,0.3-1,0.8-1.4,1.4c-0.4,0.6-0.6,1.2-0.6,1.9V118.8L69.7,118.8z M85.2,103.3v15.5h-1
			l-0.2-1.5c-0.4,0.6-1,1-1.7,1.3c-0.7,0.3-1.4,0.4-2.3,0.4c-1.6,0-2.8-0.5-3.6-1.5c-0.8-1-1.3-2.5-1.3-4.3c0-0.8,0.1-1.6,0.4-2.3
			c0.2-0.7,0.6-1.3,1-1.8c0.4-0.5,0.9-0.9,1.5-1.2c0.6-0.3,1.2-0.4,2-0.4c0.8,0,1.5,0.1,2,0.4c0.6,0.3,1.2,0.7,1.8,1.3v-5.8H85.2
			L85.2,103.3z M83.8,115.9v-5.5c-0.2-0.3-0.4-0.5-0.8-0.9c-0.4-0.3-0.8-0.6-1.3-0.8c-0.5-0.2-0.9-0.3-1.4-0.3
			c-1.2,0-2.2,0.4-2.8,1.3c-0.6,0.9-1,2.1-1,3.6c0,1.3,0.3,2.4,0.9,3.3c0.6,0.9,1.5,1.3,2.7,1.3c0.8,0,1.5-0.2,2.1-0.5
			C82.8,117.1,83.3,116.6,83.8,115.9L83.8,115.9z M93.3,108.5c-0.8,0-1.5,0.2-2.1,0.6c-0.5,0.4-0.9,0.9-1.2,1.6
			c-0.3,0.7-0.4,1.6-0.4,2.6c0,1.5,0.3,2.7,0.9,3.5c0.6,0.8,1.5,1.2,2.7,1.2c1.2,0,2.1-0.4,2.7-1.2c0.6-0.8,0.9-2,0.9-3.5
			c0-1-0.1-1.9-0.4-2.6c-0.3-0.7-0.6-1.3-1.2-1.6C94.8,108.7,94.1,108.5,93.3,108.5L93.3,108.5z M93.3,107.4c1.2,0,2.2,0.3,3,0.8
			c0.7,0.5,1.3,1.2,1.6,2.1c0.3,0.9,0.5,1.8,0.5,2.9c0,1.1-0.2,2-0.5,2.9c-0.3,0.9-0.9,1.6-1.6,2.1c-0.7,0.5-1.7,0.8-3,0.8
			c-1.8,0-3.1-0.5-3.8-1.6c-0.8-1.1-1.2-2.5-1.2-4.2c0-0.8,0.1-1.5,0.3-2.2c0.2-0.7,0.5-1.3,0.9-1.9c0.4-0.5,0.9-1,1.6-1.3
			C91.6,107.6,92.4,107.4,93.3,107.4L93.3,107.4z M101.3,118.8v-15.5h1.4v5.8c0.6-0.6,1.2-1,1.8-1.3c0.6-0.2,1.2-0.4,2-0.4
			c0.9,0,1.7,0.2,2.5,0.7c0.7,0.5,1.3,1.2,1.7,2c0.4,0.9,0.6,1.8,0.6,2.9c0,1.2-0.2,2.3-0.6,3.2c-0.4,0.9-0.9,1.5-1.7,2
			c-0.7,0.4-1.6,0.7-2.7,0.7c-0.9,0-1.6-0.1-2.3-0.4c-0.7-0.3-1.2-0.7-1.7-1.3l-0.2,1.5H101.3L101.3,118.8z M102.7,110.5v5.5
			c0.5,0.6,1.1,1.1,1.6,1.5c0.6,0.4,1.2,0.5,2.1,0.5c0.6,0,1.1-0.1,1.6-0.3c0.4-0.2,0.8-0.6,1.1-1c0.3-0.4,0.5-0.9,0.7-1.5
			c0.1-0.6,0.2-1.2,0.2-1.8c0-1-0.1-1.8-0.4-2.6c-0.3-0.7-0.7-1.3-1.3-1.7c-0.6-0.4-1.3-0.6-2.1-0.6c-0.4,0-0.9,0.1-1.4,0.3
			c-0.5,0.2-0.9,0.5-1.3,0.8C103.2,109.9,102.9,110.2,102.7,110.5L102.7,110.5z M122.2,118.8h-1.4l-0.2-1.3c-0.5,0.4-1,0.7-1.4,0.9
			c-0.4,0.2-0.9,0.4-1.4,0.5c-0.5,0.1-1,0.2-1.7,0.2c-0.6,0-1.2-0.1-1.7-0.3c-0.5-0.2-0.9-0.6-1.2-1c-0.3-0.4-0.4-1-0.4-1.6
			c0-0.7,0.2-1.4,0.5-1.8c0.3-0.5,0.8-0.9,1.5-1.2c0.6-0.3,1.4-0.6,2.3-0.8c0.9-0.2,2.1-0.5,3.6-0.8v-0.8c0-0.8-0.2-1.3-0.6-1.7
			c-0.4-0.4-1.1-0.5-2.2-0.5c-1.4,0-2.6,0.7-3.6,2l-0.9-0.5c0.5-0.9,1.2-1.5,1.9-1.9c0.7-0.4,1.6-0.6,2.6-0.6c0.9,0,1.7,0.1,2.3,0.4
			c0.6,0.2,1.1,0.6,1.3,1.1c0.3,0.5,0.4,1.2,0.4,2v5.8C122.1,117.4,122.1,118.1,122.2,118.8L122.2,118.8z M120.6,116.1v-3.6
			c-1.8,0.3-3.1,0.7-4,1.1c-0.9,0.4-1.6,0.7-1.9,1.1c-0.3,0.4-0.4,0.8-0.4,1.4c0,0.6,0.2,1.1,0.6,1.4c0.4,0.3,0.9,0.5,1.6,0.5
			c0.7,0,1.4-0.2,2.1-0.5C119.4,117.1,120,116.7,120.6,116.1z"/>
	</g>
	<g>
		<path class="st0" d="M74.4,11.3H35.5v60.1h38.9c-16.1-1-31.7-14.2-29.9-33.1C47,22.8,58.3,11.3,74.4,11.3z"/>
		<path class="st0" d="M84.8,48.4c0.7-4.8,5.7-5.8,8.2-2c2.2-3,2.3-5.4,0.5-7.7c-2.8-3.3-8.3-1.3-11.7-6.8c0,5.1-1.9,7.3-5.7,10.1
			C76.9,46.4,80.5,48.4,84.8,48.4L84.8,48.4z M74.7,22.5c0.4,0,0.9,0.5,0.9,0.9c0,0.4-0.5,0.9-0.9,0.9c-0.4,0-0.9-0.5-0.9-0.9
			C73.8,23,74.3,22.5,74.7,22.5L74.7,22.5z M57.6,37.4c0.2,2,0.3,3.3,0.6,5.8l1.3-1.2c-1-3.7,0.5-9.7-5.9-10.7V20.8
			c1.9,0.2,4,1.5,4,3.7v8.8l3.3,0.1c0.9-2.2,2.9-3.6,5.1-4.5c1.9,0.9,3.3,0,4.1-1.6c-0.4-0.5-1.1-1.1-1.9-1.1v-3.8
			c0.4-1.1,1.1-1.4,1.8-1.5h6.5v-2.2l5.4,4.8c0,0.5,0,1,0,1.5c2.5-3.9,4.3-4.6,6.9-4.9c5.2,0.2,6,6.5,2.6,8.7
			c-2.9,1.5-7.3-0.4-6.4-4.8c-3.1,3.1-2.7,7.7,1.1,9.6c2.3,1.1,7.5,1.4,9.9,5.7c1,2.7,0.7,5.8-2.4,9.3c-0.1,1.5-0.7,2.3-1.6,3.3
			c3.7,3.5,5.8,6.9,5.8,12.4H84.1c-0.4-4-3.2-6.6-6.7-6.7c1.4,1.8,2.1,2.7,2.2,6.7H67.2c2.6-3.6-1.2-9-4.8-8.8
			c0.5-2.7,1.6-4,3.7-5.4c-1.6-1.3-2.8-2.5-4.1-4.1l-8.5,8.4l0-21.6C56.1,33.3,57.6,34.7,57.6,37.4z"/>
	</g>
</g>
</svg>
