<?xml version="1.0" encoding="utf-8"?>
<!-- Generator: Adobe Illustrator 26.5.0, SVG Export Plug-In . SVG Version: 6.00 Build 0)  -->
<svg version="1.1" id="Capa_1" xmlns="http://www.w3.org/2000/svg" xmlns:xlink="http://www.w3.org/1999/xlink" x="0px" y="0px"
	 viewBox="0 0 204 74.3" style="enable-background:new 0 0 204 74.3;" xml:space="preserve">
<style type="text/css">
	.st0{fill-rule:evenodd;clip-rule:evenodd;fill:#325566;}
</style>
<g>
	<path class="st0" d="M82.5,37.8V21.6h5.9c1.6,0,3,0.3,4.2,0.9c1.2,0.6,2.1,1.5,2.8,2.6c0.7,1.2,1,2.7,1,4.6c0,1.8-0.3,3.4-1,4.6
		c-0.7,1.2-1.6,2.1-2.8,2.6c-1.2,0.6-2.6,0.9-4.2,0.9H82.5L82.5,37.8z M85.9,24.2v11h2.3c1.2,0,2.2-0.2,2.9-0.7
		c0.7-0.5,1.2-1.1,1.5-1.9c0.3-0.8,0.4-1.7,0.4-2.8c0-1.1-0.1-2-0.4-2.8c-0.3-0.8-0.8-1.5-1.5-1.9c-0.7-0.5-1.7-0.7-2.9-0.7H85.9
		L85.9,24.2z M101.9,26.1v11.6h-3.1V26.1H101.9L101.9,26.1z M101.9,24h-3.1v-2.6h3.1V24L101.9,24z M105.4,42V26.1h2.9v1.1
		c1-0.9,2.1-1.3,3.3-1.3c1.1,0,2,0.3,2.8,0.8c0.8,0.5,1.4,1.3,1.7,2.3c0.4,1,0.6,2.1,0.6,3.3c0,1-0.2,1.9-0.6,2.8
		c-0.4,0.9-1,1.6-1.8,2.1c-0.8,0.5-1.7,0.8-2.7,0.8c-0.5,0-1.1-0.1-1.7-0.4c-0.6-0.2-1.1-0.6-1.4-0.9h0V42H105.4L105.4,42z
		 M108.5,29.2v5.6c0.8,0.7,1.6,1,2.4,1c0.9,0,1.6-0.3,2.1-1c0.5-0.6,0.7-1.6,0.7-2.8c0-0.8-0.1-1.5-0.3-2.1c-0.2-0.6-0.5-1-1-1.3
		c-0.4-0.3-0.9-0.4-1.5-0.4c-0.4,0-0.7,0-1,0.1c-0.3,0.1-0.5,0.2-0.7,0.4C108.9,28.8,108.7,29,108.5,29.2L108.5,29.2z M126.6,26.1
		h3.1v11.6h-2.8v-1.3c-0.7,0.5-1.4,0.8-2,1.1c-0.6,0.3-1.3,0.4-1.9,0.4c-1.3,0-2.2-0.3-2.8-1c-0.6-0.7-1-1.6-1-2.9v-8h3.1v7.6
		c0,0.8,0.1,1.3,0.4,1.6c0.3,0.3,0.7,0.5,1.2,0.5c0.6,0,1.1-0.1,1.6-0.4c0.5-0.2,0.9-0.5,1.2-0.9V26.1L126.6,26.1z M131.5,26.1h1.8
		v-3.8h3.1v3.8h2.5v2.2h-2.5v6.6c0,0.3,0.1,0.5,0.3,0.6c0.2,0.1,0.5,0.2,0.8,0.2c0.2,0,0.6-0.1,1.4-0.2v2.3
		c-1.1,0.1-1.9,0.2-2.4,0.2c-1.1,0-1.9-0.2-2.4-0.7c-0.5-0.5-0.8-1.1-0.8-2v-6.9h-1.8V26.1L131.5,26.1z M150.5,37.8h-3l-0.2-1
		c-0.4,0.3-0.8,0.5-1.3,0.7c-0.4,0.2-0.8,0.3-1.3,0.4c-0.5,0.1-0.9,0.1-1.4,0.1c-1.1,0-2-0.3-2.6-0.9c-0.6-0.6-0.9-1.3-0.9-2.2
		c0-0.9,0.3-1.6,0.8-2.2c0.5-0.6,1.3-1.1,2.4-1.5c1.1-0.4,2.5-0.7,4.1-0.8v-1c0-0.4-0.2-0.8-0.5-1c-0.3-0.2-0.8-0.4-1.4-0.4
		c-0.7,0-1.2,0.1-1.6,0.4c-0.4,0.2-0.8,0.6-1.2,1.1l-2-1.4c0.3-0.4,0.6-0.8,1.2-1.1c0.5-0.3,1.1-0.6,1.7-0.8
		c0.6-0.2,1.3-0.3,1.9-0.3c1.2,0,2.1,0.2,2.8,0.5c0.7,0.3,1.2,0.8,1.6,1.5c0.3,0.7,0.5,1.6,0.5,2.7v5.5
		C150.2,36.8,150.3,37.3,150.5,37.8L150.5,37.8z M147.2,34.7v-2.5c-1,0.2-1.7,0.3-2.3,0.5c-0.5,0.1-1,0.4-1.4,0.7
		c-0.4,0.3-0.6,0.7-0.6,1.2c0,0.4,0.1,0.7,0.4,1c0.3,0.2,0.6,0.4,1.1,0.4c0.4,0,0.9-0.1,1.4-0.4C146.3,35.3,146.8,35,147.2,34.7
		L147.2,34.7z M162.9,29l-2.5,0.9c-0.3-0.6-0.6-1-1-1.3c-0.4-0.3-0.9-0.4-1.5-0.4c-0.8,0-1.5,0.3-1.9,0.9c-0.4,0.6-0.6,1.6-0.6,2.9
		c0,1.3,0.2,2.3,0.6,2.9c0.4,0.6,1.1,0.9,2,0.9c0.6,0,1.1-0.2,1.6-0.5c0.4-0.3,0.8-0.8,1.1-1.4l2.3,1.2c-0.6,1-1.3,1.8-2.1,2.2
		c-0.8,0.5-1.8,0.7-3,0.7c-1.1,0-2.1-0.2-3-0.7c-0.8-0.5-1.5-1.2-1.9-2.1c-0.4-0.9-0.7-2-0.7-3.2c0-1.2,0.2-2.3,0.7-3.2
		c0.4-0.9,1.1-1.6,1.9-2.1c0.8-0.5,1.8-0.7,3-0.7c1.2,0,2.3,0.3,3.2,0.8C161.9,27.3,162.5,28,162.9,29L162.9,29z M169,26.1v11.6
		h-3.1V26.1H169L169,26.1z M169,24h-3.1v-2.6h3.1V24L169,24z M179.5,31.9c0-1.3-0.2-2.2-0.6-2.9c-0.4-0.6-1-0.9-1.9-0.9
		c-0.8,0-1.5,0.3-1.9,0.9c-0.4,0.6-0.6,1.6-0.6,2.9c0,1.3,0.2,2.2,0.6,2.9c0.4,0.6,1,0.9,1.9,0.9c0.8,0,1.5-0.3,1.9-0.9
		C179.3,34.2,179.5,33.2,179.5,31.9L179.5,31.9z M171.4,31.9c0-1.2,0.2-2.3,0.7-3.2c0.4-0.9,1.1-1.6,1.9-2.1c0.8-0.5,1.8-0.7,3-0.7
		c0.9,0,1.7,0.1,2.3,0.4c0.7,0.3,1.3,0.7,1.8,1.2c0.5,0.5,0.9,1.2,1.1,1.9c0.2,0.7,0.4,1.6,0.4,2.5c0,0.9-0.1,1.7-0.4,2.5
		c-0.2,0.7-0.6,1.4-1.1,1.9c-0.5,0.5-1.1,0.9-1.8,1.2c-0.7,0.3-1.5,0.4-2.3,0.4c-1.1,0-2.1-0.2-3-0.7c-0.8-0.5-1.5-1.2-1.9-2.1
		C171.7,34.2,171.4,33.2,171.4,31.9L171.4,31.9z M177.2,21.4h3.8l-3.6,3.3h-2.5L177.2,21.4L177.2,21.4z M187.8,37.8h-3.1V26.1h2.8
		v1.3c0.7-0.5,1.4-0.8,2-1.1c0.6-0.3,1.3-0.4,1.9-0.4c1.3,0,2.2,0.3,2.8,1c0.6,0.7,1,1.6,1,2.9v8h-3.1v-7.6c0-0.8-0.1-1.3-0.4-1.6
		c-0.3-0.3-0.7-0.5-1.2-0.5c-0.6,0-1.1,0.1-1.6,0.4c-0.5,0.2-0.9,0.5-1.2,0.9V37.8z"/>
	<path class="st0" d="M91.5,44.6v15.8h-1L90.3,59c-0.5,0.6-1,1-1.7,1.3c-0.7,0.3-1.4,0.4-2.3,0.4c-1.6,0-2.9-0.5-3.7-1.5
		c-0.9-1-1.3-2.5-1.3-4.4c0-0.8,0.1-1.6,0.4-2.3c0.2-0.7,0.6-1.3,1-1.9c0.4-0.5,1-0.9,1.6-1.2c0.6-0.3,1.3-0.4,2-0.4
		c0.8,0,1.5,0.1,2.1,0.4c0.6,0.3,1.2,0.7,1.8,1.3v-5.9H91.5L91.5,44.6z M90.1,57.5v-5.6c-0.2-0.3-0.5-0.6-0.8-0.9
		c-0.4-0.3-0.8-0.6-1.3-0.8c-0.5-0.2-1-0.3-1.4-0.3c-1.3,0-2.2,0.5-2.9,1.4c-0.7,0.9-1,2.1-1,3.7c0,1.4,0.3,2.5,0.9,3.4
		c0.6,0.9,1.5,1.3,2.7,1.3c0.8,0,1.5-0.2,2.1-0.5C89,58.7,89.6,58.2,90.1,57.5L90.1,57.5z M104.8,54.8h-8.7c0,1.4,0.3,2.6,1,3.5
		c0.7,0.9,1.7,1.4,3,1.4c0.5,0,1-0.1,1.4-0.2c0.4-0.1,0.8-0.4,1.1-0.7c0.3-0.3,0.7-0.8,1.2-1.4l1.2,0.6c-0.3,0.5-0.7,1-1,1.3
		c-0.3,0.3-0.7,0.6-1.1,0.8c-0.4,0.2-0.8,0.4-1.3,0.5c-0.5,0.1-1,0.2-1.6,0.2c-1.7,0-3-0.5-3.9-1.5c-0.9-1-1.4-2.5-1.4-4.4
		c0-1.1,0.2-2.2,0.6-3.1c0.4-0.9,1-1.6,1.8-2.1c0.8-0.5,1.7-0.7,2.7-0.7c1.1,0,2,0.2,2.8,0.7c0.7,0.5,1.3,1.2,1.7,2.1
		C104.6,52.6,104.8,53.6,104.8,54.8L104.8,54.8z M96.1,53.7h7.3c-0.1-1.2-0.5-2.2-1.1-2.8c-0.6-0.7-1.4-1-2.5-1
		c-0.8,0-1.5,0.2-2,0.6c-0.5,0.4-1,0.9-1.2,1.5C96.2,52.6,96.1,53.2,96.1,53.7L96.1,53.7z M125.9,49l-1.5,0.3
		c-0.4-1.2-0.9-2.1-1.6-2.7c-0.7-0.6-1.6-0.9-2.6-0.9c-1.1,0-2,0.3-2.8,0.9c-0.8,0.6-1.3,1.4-1.7,2.5c-0.4,1-0.5,2.2-0.5,3.6
		c0,1,0.1,1.9,0.3,2.7c0.2,0.8,0.5,1.6,0.9,2.2c0.4,0.6,1,1.1,1.6,1.5c0.6,0.3,1.4,0.5,2.3,0.5c1.3,0,2.2-0.3,2.9-1
		c0.7-0.7,1.1-1.6,1.5-2.8l1.5,0.2c-0.2,1-0.6,1.8-1,2.5c-0.5,0.7-1.1,1.3-1.9,1.7c-0.8,0.4-1.8,0.6-2.9,0.6c-1,0-2-0.2-2.8-0.6
		c-0.8-0.4-1.5-0.9-2.1-1.7c-0.6-0.7-1-1.6-1.3-2.6c-0.3-1-0.4-2.1-0.4-3.3c0-1.2,0.1-2.3,0.4-3.3c0.3-1,0.7-1.8,1.3-2.6
		c0.6-0.7,1.3-1.3,2.1-1.7c0.8-0.4,1.8-0.6,2.8-0.6c1.5,0,2.7,0.4,3.6,1.2C124.8,46.5,125.4,47.6,125.9,49L125.9,49z M133.2,49.9
		c-0.8,0-1.5,0.2-2.1,0.6c-0.6,0.4-1,0.9-1.2,1.7c-0.3,0.7-0.4,1.6-0.4,2.6c0,1.6,0.3,2.8,0.9,3.6c0.6,0.8,1.5,1.3,2.8,1.3
		s2.2-0.4,2.8-1.3c0.6-0.8,0.9-2,0.9-3.6c0-1-0.1-1.9-0.4-2.6c-0.3-0.7-0.7-1.3-1.2-1.7C134.7,50.1,134,49.9,133.2,49.9L133.2,49.9z
		 M133.2,48.9c1.2,0,2.2,0.3,3,0.8c0.8,0.5,1.3,1.2,1.6,2.1c0.3,0.9,0.5,1.9,0.5,3c0,1.1-0.2,2.1-0.5,3c-0.3,0.9-0.9,1.6-1.6,2.1
		c-0.8,0.5-1.8,0.8-3,0.8c-1.8,0-3.1-0.5-3.9-1.7c-0.8-1.1-1.2-2.5-1.2-4.2c0-0.8,0.1-1.5,0.3-2.3c0.2-0.7,0.5-1.3,0.9-1.9
		c0.4-0.6,0.9-1,1.6-1.3C131.4,49,132.2,48.9,133.2,48.9L133.2,48.9z M134.2,44.8h1.8l-3.3,3h-1.2L134.2,44.8L134.2,44.8z
		 M142.5,60.4h-1.4V49.1h1.4v2.2h0c0.3-0.7,0.8-1.3,1.5-1.7c0.6-0.4,1.4-0.7,2.1-0.7h0.6v1.3h-0.6c-0.5,0-1.1,0.2-1.7,0.5
		c-0.6,0.4-1.1,0.8-1.4,1.4c-0.4,0.6-0.6,1.2-0.6,1.9V60.4L142.5,60.4z M158.4,44.6v15.8h-1l-0.2-1.5c-0.5,0.6-1,1-1.7,1.3
		c-0.7,0.3-1.4,0.4-2.3,0.4c-1.6,0-2.9-0.5-3.7-1.5c-0.9-1-1.3-2.5-1.3-4.4c0-0.8,0.1-1.6,0.4-2.3c0.2-0.7,0.6-1.3,1-1.9
		c0.4-0.5,1-0.9,1.6-1.2c0.6-0.3,1.3-0.4,2-0.4c0.8,0,1.5,0.1,2.1,0.4c0.6,0.3,1.2,0.7,1.8,1.3v-5.9H158.4L158.4,44.6z M156.9,57.5
		v-5.6c-0.2-0.3-0.5-0.6-0.8-0.9c-0.4-0.3-0.8-0.6-1.3-0.8c-0.5-0.2-1-0.3-1.4-0.3c-1.3,0-2.2,0.5-2.9,1.4c-0.7,0.9-1,2.1-1,3.7
		c0,1.4,0.3,2.5,0.9,3.4c0.6,0.9,1.5,1.3,2.7,1.3c0.8,0,1.5-0.2,2.1-0.5C155.9,58.7,156.4,58.2,156.9,57.5L156.9,57.5z M166.6,49.9
		c-0.8,0-1.5,0.2-2.1,0.6c-0.6,0.4-1,0.9-1.2,1.7c-0.3,0.7-0.4,1.6-0.4,2.6c0,1.6,0.3,2.8,0.9,3.6c0.6,0.8,1.5,1.3,2.8,1.3
		c1.3,0,2.2-0.4,2.8-1.3c0.6-0.8,0.9-2,0.9-3.6c0-1-0.1-1.9-0.4-2.6c-0.3-0.7-0.7-1.3-1.2-1.7C168.1,50.1,167.4,49.9,166.6,49.9
		L166.6,49.9z M166.6,48.9c1.2,0,2.2,0.3,3,0.8c0.8,0.5,1.3,1.2,1.6,2.1c0.3,0.9,0.5,1.9,0.5,3c0,1.1-0.2,2.1-0.5,3
		c-0.3,0.9-0.9,1.6-1.6,2.1c-0.8,0.5-1.8,0.8-3,0.8c-1.8,0-3.1-0.5-3.9-1.7c-0.8-1.1-1.2-2.5-1.2-4.2c0-0.8,0.1-1.5,0.3-2.3
		c0.2-0.7,0.5-1.3,0.9-1.9c0.4-0.6,0.9-1,1.6-1.3C164.8,49,165.6,48.9,166.6,48.9L166.6,48.9z M174.8,60.4V44.6h1.4v5.9
		c0.7-0.6,1.3-1.1,1.8-1.3c0.6-0.3,1.3-0.4,2.1-0.4c0.9,0,1.8,0.3,2.5,0.8c0.8,0.5,1.3,1.2,1.8,2.1c0.4,0.9,0.6,1.9,0.6,3
		c0,1.3-0.2,2.4-0.6,3.3c-0.4,0.9-1,1.6-1.7,2c-0.8,0.5-1.7,0.7-2.7,0.7c-0.9,0-1.6-0.1-2.3-0.4c-0.7-0.3-1.2-0.7-1.7-1.3l-0.2,1.5
		H174.8L174.8,60.4z M176.3,51.9v5.6c0.5,0.7,1.1,1.2,1.7,1.5c0.6,0.4,1.3,0.5,2.1,0.5c0.6,0,1.2-0.1,1.6-0.4c0.5-0.2,0.8-0.6,1.1-1
		c0.3-0.4,0.5-0.9,0.7-1.5c0.1-0.6,0.2-1.2,0.2-1.8c0-1-0.1-1.9-0.4-2.6c-0.3-0.8-0.7-1.3-1.3-1.8c-0.6-0.4-1.3-0.6-2.1-0.6
		c-0.4,0-0.9,0.1-1.4,0.3c-0.5,0.2-0.9,0.5-1.3,0.8C176.7,51.4,176.4,51.7,176.3,51.9L176.3,51.9z M196.2,60.4h-1.4l-0.2-1.4
		c-0.5,0.4-1,0.7-1.5,0.9c-0.4,0.2-0.9,0.4-1.4,0.5c-0.5,0.1-1.1,0.2-1.7,0.2c-0.7,0-1.2-0.1-1.8-0.4c-0.5-0.2-0.9-0.6-1.2-1
		c-0.3-0.4-0.5-1-0.5-1.6c0-0.8,0.2-1.4,0.5-1.9c0.3-0.5,0.8-0.9,1.5-1.2c0.7-0.3,1.4-0.6,2.3-0.8c0.9-0.2,2.1-0.5,3.7-0.8v-0.8
		c0-0.8-0.2-1.4-0.6-1.7c-0.4-0.4-1.2-0.6-2.2-0.6c-1.5,0-2.7,0.7-3.6,2l-1-0.5c0.5-0.9,1.2-1.5,1.9-2c0.8-0.4,1.7-0.6,2.7-0.6
		c0.9,0,1.7,0.1,2.4,0.4c0.6,0.2,1.1,0.6,1.4,1.2c0.3,0.5,0.5,1.2,0.5,2v6C196,59.1,196.1,59.8,196.2,60.4L196.2,60.4z M194.6,57.7
		V54c-1.8,0.4-3.2,0.7-4.1,1.1c-1,0.4-1.6,0.8-1.9,1.2c-0.3,0.4-0.5,0.9-0.5,1.4c0,0.6,0.2,1.1,0.6,1.4c0.4,0.3,1,0.5,1.6,0.5
		c0.7,0,1.4-0.2,2.2-0.5C193.2,58.8,193.9,58.3,194.6,57.7z"/>
	<g>
		<path class="st0" d="M46.5,7.2H7.8v59.9h38.7c-16.1-1-31.5-14.1-29.8-33C19.2,18.7,30.5,7.2,46.5,7.2z"/>
		<path class="st0" d="M56.9,44.2c0.7-4.8,5.6-5.8,8.2-2c2.2-2.9,2.3-5.3,0.5-7.7c-2.8-3.3-8.2-1.3-11.7-6.8c0,5.1-1.9,7.3-5.6,10.1
			C49,42.2,52.6,44.2,56.9,44.2L56.9,44.2z M46.8,18.4c0.4,0,0.9,0.5,0.9,0.9c0,0.4-0.5,0.9-0.9,0.9c-0.4,0-0.9-0.5-0.9-0.9
			C46,18.8,46.4,18.4,46.8,18.4L46.8,18.4z M29.8,33.2c0.2,2,0.3,3.3,0.6,5.8l1.3-1.2c-1-3.7,0.5-9.7-5.9-10.7V16.6
			c1.9,0.2,4,1.5,4,3.6v8.8l3.3,0.1c0.9-2.2,2.9-3.5,5-4.5c1.9,0.9,3.3,0,4.1-1.6c-0.4-0.5-1.1-1.1-1.9-1.1v-3.8
			c0.4-1.1,1.1-1.4,1.8-1.5h6.5v-2.2l5.4,4.8c0,0.5,0,1,0,1.5c2.5-3.9,4.2-4.5,6.9-4.9c5.2,0.2,6,6.4,2.6,8.7
			c-2.9,1.5-7.3-0.4-6.4-4.8c-3.1,3.1-2.7,7.7,1.1,9.6c2.3,1.1,7.5,1.4,9.8,5.6c1,2.7,0.7,5.8-2.4,9.2c-0.1,1.4-0.7,2.3-1.6,3.3
			c3.7,3.5,5.8,6.9,5.8,12.3H56.2c-0.4-4-3.2-6.5-6.7-6.7c1.4,1.8,2.1,2.7,2.2,6.7H39.4c2.6-3.6-1.2-9-4.7-8.8
			c0.5-2.7,1.5-4,3.7-5.4c-1.6-1.3-2.8-2.5-4.1-4.1L25.7,50l0-21.6C28.3,29.1,29.8,30.5,29.8,33.2z"/>
	</g>
</g>
</svg>
