<?xml version="1.0" encoding="utf-8"?>
<!-- Generator: Adobe Illustrator 26.5.0, SVG Export Plug-In . SVG Version: 6.00 Build 0)  -->
<svg version="1.1" id="Capa_1" xmlns="http://www.w3.org/2000/svg" xmlns:xlink="http://www.w3.org/1999/xlink" x="0px" y="0px"
	 viewBox="0 0 300 100" style="enable-background:new 0 0 300 100;" xml:space="preserve">
<style type="text/css">
	.st0{fill:#DAD2C5;}
</style>
<g>
	<g>
		<g>
			<path class="st0" d="M15.3,30.1c-0.7,3.4-2.8,5.8-3.8,5.8l-2.1,0V9V8.4l1.5-0.7V6.8H5v0.9l1.4,0.7v0.5V35L5,35.8v0.9h11l0-6.5
				C15.7,30.1,15.6,30.1,15.3,30.1z"/>
			<polygon class="st0" points="43.1,24.1 37.3,24.1 38,21.2 43.7,21.2 			"/>
			<polygon class="st0" points="61.2,35 61.2,8.6 61.2,8.4 62.6,7.7 62.6,6.8 56.9,6.8 56.9,7.7 58.3,8.4 58.3,8.6 58.3,20.6 
				52.3,20.6 52.3,8.7 53.9,7.7 53.9,6.8 49.7,6.8 49.7,7.7 51.4,8.9 51.4,9 51.4,34.4 51.4,34.5 49.7,35.8 49.7,36.6 53.9,36.6 
				53.9,35.8 52.3,34.7 52.3,21.5 58.3,21.5 58.3,35 56.9,35.8 56.9,36.6 62.7,36.6 62.7,35.8 			"/>
			<path class="st0" d="M94.4,20.7C94.2,13.1,88,7,80,6.8c-9.1,0-15.4,6.6-15.3,15.4c0.1,8.1,6.8,14.5,15.4,14.4
				C88.1,36.5,94.8,30.1,94.4,20.7z M91.3,26.5L91.3,26.5c-0.1,4-3.4,7.5-7.6,8.7c-1.3,0.4-2.6,0.6-3.9,0.6v0c-0.1,0-0.2,0-0.3,0
				c-0.1,0-0.2,0-0.3,0v0c-1.3,0-2.6-0.2-3.9-0.6c-4.2-1.2-7.4-4.7-7.6-8.7l0,0c0-1.5,0-8,0-9.5l0,0c0.1-4,3.4-7.5,7.6-8.7
				c1.3-0.4,2.6-0.6,3.9-0.6v0c0.1,0,0.2,0,0.3,0c0.1,0,0.2,0,0.3,0v0c1.3,0,2.6,0.2,3.9,0.6C88,9.5,91.2,13,91.3,17l0,0
				C91.4,18.5,91.4,25,91.3,26.5z"/>
			<path class="st0" d="M108.8,8.1V6.9L97,7l-0.3,6.5c0.3,0,0.7,0,1,0c0.5-1.9,1.1-3.8,1.8-5.2h6.1l-8.7,27l-0.1,0.2v1.1h7.8h2.2
				h1.4l0.1-5.2c-0.4,0-0.8,0-1.1,0c-0.4,1.5-0.9,3.2-1.5,4.3h-1.2h-4.7l0.1-0.4L108.8,8.1z"/>
			<path class="st0" d="M31.4,35c-0.2-0.8-0.5-2.1-0.6-2.6c-0.7-3.1-5.9-25.6-5.9-25.6H24c0,0-2.3,15.7-3.4,23
				c-0.2,1.7-0.4,2.6-0.5,3.7c-0.1,0.3-0.1,0.7-0.2,1l-1.7,1.2v0.9h4.2v-0.9l-1.7-1.1c0-0.3,0.2-0.8,0.2-1.2c0.3-2.3,0.4-3,0.8-5.6
				c1.3,0,4.9,0,4.9,0s1.2,5.2,1.5,6.4c0,0,0.1,0.4,0.1,0.6l-1.4,0.8v0.9h5.6v-0.9L31.4,35z M22,27c0.2-1.1,1.7-12,1.8-12
				c0.5,2.3,2.8,12,2.8,12S22,27,22,27z"/>
		</g>
		<g>
			<path class="st0" d="M137.5,35c-0.2-0.8-0.5-2.1-0.6-2.6c-0.7-3.1-5.9-25.6-5.9-25.6h-0.9c0,0-2.3,15.7-3.4,23
				c-0.2,1.7-0.4,2.6-0.5,3.7c-0.1,0.3-0.1,0.7-0.2,1l-1.7,1.2v0.9h4.2v-0.9l-1.7-1.1c0-0.3,0.2-0.8,0.2-1.2c0.3-2.3,0.4-3,0.8-5.6
				c1.3,0,4.9,0,4.9,0s1.2,5.2,1.5,6.4c0,0,0.1,0.4,0.1,0.6l-1.4,0.8v0.9h5.6v-0.9L137.5,35z M128.1,26.9c0.2-1.1,1.7-12,1.8-12
				c0.5,2.3,2.8,12,2.8,12S128.1,26.9,128.1,26.9z"/>
			<path class="st0" d="M185.2,36.6l-1.2-2.9h-4.6c3.6-2.8,5.9-7.3,5.7-12.9c-0.3-7.6-6.5-13.8-14.4-13.9c-9.1,0-15.4,6.6-15.3,15.4
				c0.1,7.9,6.6,14.2,14.9,14.4l0,0H185.2z M170.2,35.7c-0.1,0-0.2,0-0.3,0v0c-1.3,0-2.6-0.2-3.9-0.6c-4.2-1.2-7.4-4.7-7.6-8.7l0,0
				c0-1.5,0-8,0-9.5l0,0c0.1-4,3.4-7.5,7.6-8.7c1.3-0.4,2.6-0.6,3.9-0.6v0c0.1,0,0.2,0,0.3,0c0.1,0,0.2,0,0.3,0v0
				c1.3,0,2.6,0.2,3.9,0.6c4.2,1.2,7.4,4.7,7.6,8.7l0,0c0,1.5,0,8,0,9.5l0,0c-0.1,2.9-1.8,5.5-4.4,7.2h-7l-0.3,2.1
				C170.3,35.7,170.3,35.7,170.2,35.7z"/>
			<path class="st0" d="M152.2,35C152.2,35,152.2,35,152.2,35c-1.3-2.9-4-9.1-4.8-11c-0.2-0.4-0.4-1.3-0.4-1.3s0.3-0.1,0.8-0.5
				c1.3-1.1,3.7-3.5,3.6-6.8c-0.1-3.4-2-6.3-3.6-7.4c-1.7-1.1-3.4-1.3-4.8-1.3l-2.6,0v1c0,0,1.5,1,1.5,1C142,8.9,142,8.9,142,9
				c0,2.5,0,5.7,0,8.1c0,0.2,0,0.3,0,0.5c0,4.8,0,15.4,0,16.2c0,0.1,0,0.5,0,1l-1.7,0.9v0.9h5.7v-0.9l-1-0.6c0-0.5,0-1.1,0-1.1
				c-0.1-2.2-0.1-5.4-0.1-7.7c0.2,0,0.2,0,0.2,0c0.6,1.6,2.8,6.5,3.8,8.8c0,0,0,0,0,0l-0.9,0.5v0.9h5.6v-0.9L152.2,35z M144.9,22.9
				c0-1,0-3.3,0-5.8c0,0,0,0,0,0c0-4,0-8.9,0-8.9s3.4,0,3.4,7.5C148.4,19.5,145.7,22.8,144.9,22.9z"/>
			<path class="st0" d="M197.2,6.8v0.9l1.7,1v0v0.6v16.3c0,4.4-0.5,9.3-4.1,9.3c-2.5,0-2.9-3.1-2.9-8.2V8.9V8.3l1.3-0.7V6.8h-5.6
				v0.9l1.4,0.8V9v18.9c0,7,2.4,8.7,5.5,8.7c3.6,0,5.4-3.6,5.4-10.2v-17V8.7v0l1.7-1V6.8H197.2z"/>
			<polygon class="st0" points="208.9,7.6 208.9,6.8 203.3,6.8 203.3,7.6 205,8.6 205,33.8 205,33.8 205,34.8 203.3,35.7 
				203.3,36.6 208.9,36.6 208.9,35.7 207.1,34.8 207.1,33.7 207.1,33.7 207.1,8.6 			"/>
			<path class="st0" d="M223.2,6.8h-1.5h-2.8h-3.7h-3.4h-0.9l0,5.7l0.9,0c0.4-1.5,0.9-2.2,1.4-3c0.3-0.5,1.1-1.6,1.8-1.9h0.6
				c0,6,0,22.8,0,27.2l-1.4,0.8v0.9h5.6v-0.9l-1.3-0.7c0-4.4,0-21.5,0-27.3h0.6c0.7,0.3,1.5,1.4,1.8,1.9c0.5,0.7,1,1.4,1.4,3l0.9,0
				L223.2,6.8z"/>
			<path class="st0" d="M264.6,6.8H263h-2.8h-3.7h-3.4h-0.9l0,5.7l0.9,0c0.4-1.5,0.9-2.2,1.4-3c0.3-0.5,1.1-1.6,1.8-1.9h0.6
				c0,6,0,22.8,0,27.2l-1.4,0.8v0.9h5.6v-0.9l-1.3-0.7c0-4.4,0-21.5,0-27.3h0.6c0.7,0.3,1.5,1.4,1.8,1.9c0.5,0.7,1,1.4,1.4,3l0.9,0
				L264.6,6.8z"/>
			<path class="st0" d="M233.5,33.8c-0.3,0.5-1.4,1.9-2.1,1.9c0,0,0,0,0,0h-1.7c-0.1,0-0.1,0-0.1,0c0-1,0-7.5,0-14.2h1.7
				c0.5,0.6,1.1,1.7,1.4,2.9h0.9v-6.4c-0.2,0-0.8,0-1,0c-0.3,1.2-0.7,2-1.2,2.6h-1.8c0-5.1,0-10.3,0-13c0,0,0.1,0,0.1,0h1.7
				c0,0,0,0,0,0c0.8,0,1.8,1.4,2.1,1.9c0.5,0.7,1,1.4,1.4,3l0.9,0l0-5.7H232h-0.5h-6.3v0.9l1.4,0.7c0,5.1,0,22.5,0,26.6l-1.4,0.7
				v0.9h6.3h0.5h3.8l0-5.7l-0.9,0C234.5,32.4,234,33.1,233.5,33.8z"/>
			<path class="st0" d="M245.3,7.8c1.1,0.1,1.9,1.3,2.8,3.7l0.5,2.9l0.7,0V8.6c-0.7-0.6-2.2-1.8-4.2-1.8c-4.1,0-6.2,7.4-6.4,14.4
				c0,0,0,0,0,0c0,0,0,0,0,0c0,0.2,0,0.4,0,0.5c0,0.2,0,0.4,0,0.5c0,0,0,0,0,0c0,0,0,0,0,0c0.2,7,2.3,14.4,6.4,14.4
				c2,0,3.5-1.2,4.2-1.8V29l-0.7,0l-0.5,2.9c-0.8,2.4-1.7,3.6-2.8,3.7c-1.8,0.1-2.7-2.6-3.3-6.6c-0.2-1.6-0.3-3.5-0.3-7.3
				c0-3.8,0.1-5.7,0.3-7.3C242.6,10.4,243.5,7.7,245.3,7.8z"/>
			<path class="st0" d="M295,20.7c-0.3-7.6-6.5-13.8-14.4-13.9c-9.1,0-15.4,6.6-15.3,15.4c0.1,8.1,6.8,14.5,15.4,14.4
				C288.7,36.5,295.3,30,295,20.7z M291.9,26.4L291.9,26.4c-0.1,4-3.4,7.5-7.6,8.7c-1.3,0.4-2.6,0.6-3.9,0.6v0c-0.1,0-0.2,0-0.3,0
				c-0.1,0-0.2,0-0.3,0v0c-1.3,0-2.6-0.2-3.9-0.6c-4.2-1.2-7.4-4.7-7.6-8.7l0,0c0-1.5,0-8,0-9.5l0,0c0.1-4,3.4-7.5,7.6-8.7
				c1.3-0.4,2.6-0.6,3.9-0.6v0c0.1,0,0.2,0,0.3,0c0.1,0,0.2,0,0.3,0v0c1.3,0,2.6,0.2,3.9,0.6c4.2,1.2,7.4,4.7,7.6,8.7l0,0
				C291.9,18.4,291.9,24.9,291.9,26.4z"/>
		</g>
		<g>
			<path class="st0" d="M113.2,36.6c-0.9,0-1.6-0.7-1.6-1.6c0-0.9,0.7-1.6,1.6-1.6s1.6,0.7,1.6,1.6
				C114.8,35.9,114.1,36.6,113.2,36.6z"/>
		</g>
	</g>
	<g>
		<g>
			<path class="st0" d="M9.1,93.2c-0.5,0-1-0.1-1.5-0.3c-0.5-0.2-0.9-0.5-1.2-0.9c-0.4-0.4-0.6-0.8-0.8-1.3c-0.2-0.5-0.3-1-0.3-1.6
				c0-0.6,0.1-1.1,0.3-1.6c0.2-0.5,0.5-0.9,0.8-1.3c0.4-0.4,0.8-0.7,1.2-0.9c0.5-0.2,1-0.3,1.5-0.3c0.6,0,1.2,0.1,1.8,0.4
				c0.5,0.3,1,0.7,1.3,1.2L11.6,87c-0.3-0.4-0.7-0.7-1.1-1c-0.5-0.2-0.9-0.4-1.4-0.4c-0.5,0-0.9,0.1-1.3,0.3c-0.4,0.2-0.7,0.4-1,0.8
				c-0.3,0.3-0.5,0.7-0.7,1.1c-0.2,0.4-0.2,0.9-0.2,1.3c0,0.5,0.1,0.9,0.3,1.3c0.2,0.4,0.4,0.8,0.7,1.1c0.3,0.3,0.6,0.6,1,0.7
				c0.4,0.2,0.8,0.3,1.3,0.3c0.5,0,1-0.1,1.4-0.4c0.4-0.2,0.8-0.6,1.1-0.9l0.5,0.3c-0.4,0.5-0.8,0.9-1.3,1.2
				C10.3,93.1,9.7,93.2,9.1,93.2z"/>
			<path class="st0" d="M21.4,93.1v-7.8h4.7v0.6H22v2.7h3.4v0.6H22v3.3h4.1v0.6H21.4z"/>
			<path class="st0" d="M35.4,93.1v-7.8h0.7l4.4,6.7v-6.7h0.6v7.8h-0.6l-4.4-6.7v6.7H35.4z"/>
			<path class="st0" d="M56.4,85.2v0.6h-2.8v7.2h-0.6v-7.2h-2.8v-0.6H56.4z"/>
			<path class="st0" d="M65.6,93.1v-7.8h4.7v0.6h-4.1v2.7h3.4v0.6h-3.4v3.3h4.1v0.6H65.6z"/>
			<path class="st0" d="M79.6,93.1v-7.8h0.7l4.4,6.7v-6.7h0.6v7.8h-0.6l-4.4-6.7v6.7H79.6z"/>
			<path class="st0" d="M97.3,85.2h0.8l2.9,7.8h-0.6l-0.6-1.8h-3.9l-0.6,1.8h-0.6L97.3,85.2z M96,90.7h3.5l-1.7-4.8L96,90.7z"/>
			<path class="st0" d="M110.2,93.1v-7.8h2.6c0.4,0,0.8,0.1,1.1,0.3c0.3,0.2,0.6,0.5,0.8,0.8c0.2,0.3,0.3,0.7,0.3,1.2
				c0,0.4-0.1,0.8-0.2,1.1c-0.2,0.3-0.4,0.6-0.7,0.8c-0.3,0.2-0.6,0.3-1,0.4l1.9,3.3h-0.7l-1.9-3.3h-1.6v3.3H110.2z M110.8,89.2h1.9
				c0.3,0,0.6-0.1,0.8-0.2c0.3-0.1,0.4-0.3,0.6-0.6c0.1-0.3,0.2-0.5,0.2-0.9c0-0.3-0.1-0.6-0.2-0.9c-0.1-0.3-0.3-0.5-0.6-0.6
				c-0.3-0.1-0.5-0.2-0.8-0.2h-1.9V89.2z"/>
			<path class="st0" d="M124.5,93.1v-7.8h0.6v7.8H124.5z"/>
			<path class="st0" d="M138.3,93.2c-0.5,0-1-0.1-1.5-0.3c-0.5-0.2-0.9-0.5-1.2-0.9c-0.4-0.4-0.6-0.8-0.8-1.3
				c-0.2-0.5-0.3-1-0.3-1.6c0-0.6,0.1-1.1,0.3-1.6c0.2-0.5,0.5-0.9,0.8-1.3c0.4-0.4,0.8-0.7,1.2-0.9c0.5-0.2,1-0.3,1.5-0.3
				c0.5,0,1,0.1,1.5,0.3c0.5,0.2,0.9,0.5,1.2,0.9c0.4,0.4,0.6,0.8,0.8,1.3c0.2,0.5,0.3,1,0.3,1.6c0,0.6-0.1,1.1-0.3,1.6
				c-0.2,0.5-0.5,0.9-0.8,1.3c-0.4,0.4-0.8,0.7-1.2,0.9C139.3,93.1,138.8,93.2,138.3,93.2z M138.3,92.6c0.5,0,0.9-0.1,1.3-0.3
				c0.4-0.2,0.7-0.4,1-0.8c0.3-0.3,0.5-0.7,0.7-1.1c0.2-0.4,0.3-0.9,0.3-1.3c0-0.5-0.1-0.9-0.3-1.3c-0.2-0.4-0.4-0.8-0.7-1.1
				c-0.3-0.3-0.6-0.6-1-0.7c-0.4-0.2-0.8-0.3-1.3-0.3c-0.5,0-0.9,0.1-1.3,0.3c-0.4,0.2-0.7,0.4-1,0.8c-0.3,0.3-0.5,0.7-0.7,1.1
				c-0.2,0.4-0.3,0.9-0.3,1.3c0,0.5,0.1,0.9,0.3,1.3c0.2,0.4,0.4,0.8,0.7,1.1c0.3,0.3,0.6,0.6,1,0.7S137.8,92.6,138.3,92.6z"/>
		</g>
	</g>
	<g>
		<g>
			<path class="st0" d="M6.7,73.5v-12H5.4l0.3-1h2v13H6.7z"/>
			<path class="st0" d="M16.2,73.5l3-5.2c-0.7,0.3-1.3,0.4-2,0.4c-0.7-0.1-1.3-0.3-1.9-0.6c-0.6-0.4-1-0.9-1.4-1.5
				c-0.4-0.6-0.5-1.3-0.5-2.1c0-0.6,0.1-1.1,0.3-1.7c0.2-0.5,0.5-1,0.9-1.4c0.4-0.4,0.8-0.7,1.4-0.9c0.5-0.2,1.1-0.3,1.7-0.3
				c0.8,0,1.5,0.2,2.1,0.6c0.6,0.4,1.2,0.9,1.5,1.6c0.4,0.6,0.6,1.4,0.6,2.1c0,0.5-0.1,0.8-0.2,1.2c-0.1,0.3-0.3,0.7-0.5,1.1
				l-3.8,6.7H16.2z M17.6,67.8c0.6,0,1.2-0.2,1.7-0.5c0.5-0.3,0.9-0.7,1.2-1.2c0.3-0.5,0.4-1,0.4-1.6c0-0.6-0.2-1.2-0.5-1.7
				c-0.3-0.5-0.7-0.9-1.2-1.2c-0.5-0.3-1-0.4-1.6-0.4c-0.6,0-1.2,0.2-1.7,0.5c-0.5,0.3-0.9,0.7-1.2,1.2c-0.3,0.5-0.4,1-0.4,1.6
				c0,0.6,0.1,1.1,0.4,1.6c0.3,0.5,0.7,0.9,1.2,1.2C16.4,67.7,17,67.8,17.6,67.8z"/>
			<path class="st0" d="M26.7,73.5v-0.9c0.5-0.5,1.1-1.1,1.7-1.7c0.6-0.6,1.2-1.2,1.8-1.8c0.6-0.6,1.1-1.2,1.6-1.8
				c0.5-0.6,0.9-1.2,1.2-1.7c0.3-0.5,0.4-1,0.4-1.4c0-0.5-0.1-1-0.4-1.4c-0.3-0.4-0.6-0.8-1-1c-0.4-0.3-0.9-0.4-1.4-0.4
				c-0.5,0-1,0.1-1.4,0.4c-0.4,0.3-0.8,0.6-1,1c-0.3,0.4-0.4,0.9-0.4,1.4h-1c0-0.7,0.2-1.4,0.5-2c0.3-0.6,0.8-1,1.4-1.4
				c0.6-0.3,1.2-0.5,1.9-0.5c0.7,0,1.3,0.2,1.9,0.5c0.6,0.3,1,0.8,1.4,1.4c0.3,0.6,0.5,1.2,0.5,1.9c0,0.5-0.1,1-0.4,1.5
				c-0.3,0.5-0.6,1.1-1,1.7c-0.4,0.6-0.9,1.2-1.4,1.8c-0.5,0.6-1.1,1.2-1.6,1.8c-0.6,0.6-1.1,1.1-1.6,1.6h6.3v1H26.7z"/>
			<path class="st0" d="M45.8,73.5v-3.8h-5.6v-1l5.3-8.2h1.3v8.2h1.5v1h-1.5v3.8H45.8z M41.4,68.7l4.4,0l0-6.7L41.4,68.7z"/>
			<path class="st0" d="M62,67.4h16.7v1H62V67.4z"/>
			<path class="st0" d="M92,73.5v-0.9c0.5-0.5,1.1-1.1,1.7-1.7c0.6-0.6,1.2-1.2,1.8-1.8c0.6-0.6,1.1-1.2,1.6-1.8
				c0.5-0.6,0.9-1.2,1.2-1.7c0.3-0.5,0.4-1,0.4-1.4c0-0.5-0.1-1-0.4-1.4c-0.3-0.4-0.6-0.8-1-1s-0.9-0.4-1.4-0.4
				c-0.5,0-1,0.1-1.4,0.4c-0.4,0.3-0.8,0.6-1,1c-0.3,0.4-0.4,0.9-0.4,1.4h-1c0-0.7,0.2-1.4,0.5-2c0.3-0.6,0.8-1,1.4-1.4
				s1.2-0.5,1.9-0.5c0.7,0,1.3,0.2,1.9,0.5c0.6,0.3,1,0.8,1.4,1.4c0.3,0.6,0.5,1.2,0.5,1.9c0,0.5-0.1,1-0.4,1.5
				c-0.3,0.5-0.6,1.1-1,1.7C98,68,97.6,68.6,97,69.2c-0.5,0.6-1.1,1.2-1.6,1.8c-0.6,0.6-1.1,1.1-1.6,1.6h6.3v1H92z"/>
			<path class="st0" d="M110.3,73.7c-0.8,0-1.5-0.2-2.1-0.5c-0.6-0.3-1.1-0.8-1.6-1.4c-0.4-0.6-0.7-1.3-1-2.1
				c-0.2-0.8-0.3-1.7-0.3-2.6c0-0.9,0.1-1.8,0.3-2.6c0.2-0.8,0.5-1.5,1-2.1c0.4-0.6,0.9-1.1,1.6-1.4c0.6-0.3,1.3-0.5,2.1-0.5
				c0.8,0,1.5,0.2,2.1,0.5c0.6,0.3,1.1,0.8,1.5,1.4c0.4,0.6,0.7,1.3,1,2.1c0.2,0.8,0.3,1.7,0.3,2.6c0,0.9-0.1,1.8-0.3,2.6
				c-0.2,0.8-0.5,1.5-1,2.1c-0.4,0.6-0.9,1.1-1.5,1.4C111.8,73.6,111.1,73.7,110.3,73.7z M110.3,72.7c0.9,0,1.6-0.3,2.2-0.8
				c0.6-0.5,1-1.2,1.3-2.1c0.3-0.9,0.4-1.8,0.4-2.8c0-1.1-0.2-2.1-0.5-2.9c-0.3-0.9-0.8-1.5-1.3-2c-0.6-0.5-1.3-0.8-2.2-0.8
				c-0.7,0-1.3,0.2-1.8,0.5c-0.5,0.3-0.9,0.7-1.2,1.3c-0.3,0.5-0.6,1.1-0.7,1.8c-0.2,0.7-0.2,1.4-0.2,2.2c0,1,0.2,2,0.5,2.9
				c0.3,0.9,0.8,1.6,1.3,2.1C108.7,72.5,109.4,72.7,110.3,72.7z"/>
			<path class="st0" d="M120,73.5v-0.9c0.5-0.5,1.1-1.1,1.7-1.7c0.6-0.6,1.2-1.2,1.8-1.8c0.6-0.6,1.1-1.2,1.6-1.8
				c0.5-0.6,0.9-1.2,1.2-1.7c0.3-0.5,0.4-1,0.4-1.4c0-0.5-0.1-1-0.4-1.4c-0.3-0.4-0.6-0.8-1-1s-0.9-0.4-1.4-0.4
				c-0.5,0-1,0.1-1.4,0.4c-0.4,0.3-0.8,0.6-1,1c-0.3,0.4-0.4,0.9-0.4,1.4h-1c0-0.7,0.2-1.4,0.5-2c0.3-0.6,0.8-1,1.4-1.4
				s1.2-0.5,1.9-0.5s1.3,0.2,1.9,0.5c0.6,0.3,1,0.8,1.4,1.4c0.3,0.6,0.5,1.2,0.5,1.9c0,0.5-0.1,1-0.4,1.5c-0.3,0.5-0.6,1.1-1,1.7
				c-0.4,0.6-0.9,1.2-1.4,1.8c-0.5,0.6-1.1,1.2-1.6,1.8c-0.6,0.6-1.1,1.1-1.6,1.6h6.3v1H120z"/>
			<path class="st0" d="M139.1,73.5v-3.8h-5.6v-1l5.3-8.2h1.3v8.2h1.5v1h-1.5v3.8H139.1z M134.7,68.7l4.4,0l0-6.7L134.7,68.7z"/>
		</g>
	</g>
</g>
</svg>
